<svg width="975" height="256" viewBox="0 0 975 256" fill="none" xmlns="http://www.w3.org/2000/svg">
<path d="M256 94.5704C256 164.03 205.883 256 135.191 256C64.4986 256 0 164.03 0 94.5704C0 25.1109 50.1165 0 120.809 0C191.501 0 256 25.1109 256 94.5704Z" fill="white"/>
<path d="M123.6 192.8C113.2 192.8 103.8 190.4 95.4 185.6C87.1333 180.667 80.5333 174 75.6 165.6C70.8 157.2 68.4 147.733 68.4 137.2C68.4 126.667 70.6 117.267 75 109C79.5333 100.6 85.6667 94 93.4 89.2C101.133 84.2667 109.867 81.8 119.6 81.8C127.467 81.8 134.733 83.4667 141.4 86.8C148.067 90 153.667 94.4 158.2 100V46C158.2 42.9333 159.133 40.4667 161 38.6C163 36.7333 165.467 35.8 168.4 35.8C171.467 35.8 173.933 36.7333 175.8 38.6C177.667 40.4667 178.6 42.9333 178.6 46V137.2C178.6 147.733 176.133 157.2 171.2 165.6C166.4 174 159.867 180.667 151.6 185.6C143.333 190.4 134 192.8 123.6 192.8ZM123.6 174.8C130.4 174.8 136.467 173.2 141.8 170C147.133 166.667 151.333 162.133 154.4 156.4C157.467 150.667 159 144.267 159 137.2C159 130 157.467 123.6 154.4 118C151.333 112.4 147.133 108 141.8 104.8C136.467 101.467 130.4 99.8 123.6 99.8C116.933 99.8 110.867 101.467 105.4 104.8C100.067 108 95.8 112.4 92.6 118C89.5333 123.6 88 130 88 137.2C88 144.267 89.5333 150.667 92.6 156.4C95.8 162.133 100.067 166.667 105.4 170C110.867 173.2 116.933 174.8 123.6 174.8Z" fill="black"/>
<path d="M341.08 182.64C332.76 182.64 325.24 180.72 318.52 176.88C311.907 172.933 306.627 167.6 302.68 160.88C298.84 154.16 296.92 146.587 296.92 138.16C296.92 129.733 298.68 122.213 302.2 115.6C305.827 108.88 310.733 103.6 316.92 99.76C323.107 95.8133 330.093 93.84 337.88 93.84C344.173 93.84 349.987 95.1733 355.32 97.84C360.653 100.4 365.133 103.92 368.76 108.4V65.2C368.76 62.7467 369.507 60.7733 371 59.28C372.6 57.7867 374.573 57.04 376.92 57.04C379.373 57.04 381.347 57.7867 382.84 59.28C384.333 60.7733 385.08 62.7467 385.08 65.2V138.16C385.08 146.587 383.107 154.16 379.16 160.88C375.32 167.6 370.093 172.933 363.48 176.88C356.867 180.72 349.4 182.64 341.08 182.64ZM341.08 168.24C346.52 168.24 351.373 166.96 355.64 164.4C359.907 161.733 363.267 158.107 365.72 153.52C368.173 148.933 369.4 143.813 369.4 138.16C369.4 132.4 368.173 127.28 365.72 122.8C363.267 118.32 359.907 114.8 355.64 112.24C351.373 109.573 346.52 108.24 341.08 108.24C335.747 108.24 330.893 109.573 326.52 112.24C322.253 114.8 318.84 118.32 316.28 122.8C313.827 127.28 312.6 132.4 312.6 138.16C312.6 143.813 313.827 148.933 316.28 153.52C318.84 158.107 322.253 161.733 326.52 164.4C330.893 166.96 335.747 168.24 341.08 168.24ZM450.38 182.64C442.593 182.64 435.607 180.72 429.42 176.88C423.233 172.933 418.327 167.653 414.7 161.04C411.18 154.32 409.42 146.747 409.42 138.32C409.42 129.893 411.34 122.32 415.18 115.6C419.127 108.88 424.407 103.6 431.02 99.76C437.74 95.8133 445.26 93.84 453.58 93.84C461.9 93.84 469.367 95.8133 475.98 99.76C482.593 103.6 487.82 108.88 491.66 115.6C495.607 122.32 497.58 129.893 497.58 138.32H491.34C491.34 146.747 489.527 154.32 485.9 161.04C482.38 167.653 477.527 172.933 471.34 176.88C465.153 180.72 458.167 182.64 450.38 182.64ZM453.58 168.24C459.02 168.24 463.873 166.96 468.14 164.4C472.407 161.733 475.767 158.16 478.22 153.68C480.673 149.093 481.9 143.973 481.9 138.32C481.9 132.56 480.673 127.44 478.22 122.96C475.767 118.373 472.407 114.8 468.14 112.24C463.873 109.573 459.02 108.24 453.58 108.24C448.247 108.24 443.393 109.573 439.02 112.24C434.753 114.8 431.34 118.373 428.78 122.96C426.327 127.44 425.1 132.56 425.1 138.32C425.1 143.973 426.327 149.093 428.78 153.68C431.34 158.16 434.753 161.733 439.02 164.4C443.393 166.96 448.247 168.24 453.58 168.24ZM489.42 182.16C487.073 182.16 485.1 181.413 483.5 179.92C482.007 178.32 481.26 176.347 481.26 174V149.52L484.3 132.56L497.58 138.32V174C497.58 176.347 496.78 178.32 495.18 179.92C493.687 181.413 491.767 182.16 489.42 182.16ZM553.709 182C548.375 182 543.575 180.667 539.309 178C535.042 175.227 531.682 171.493 529.229 166.8C526.775 162.107 525.549 156.827 525.549 150.96V74.64C525.549 72.2933 526.295 70.3733 527.789 68.88C529.282 67.3867 531.202 66.64 533.549 66.64C535.895 66.64 537.815 67.3867 539.309 68.88C540.802 70.3733 541.549 72.2933 541.549 74.64V150.96C541.549 155.227 542.722 158.8 545.069 161.68C547.415 164.56 550.295 166 553.709 166H559.149C561.069 166 562.669 166.747 563.949 168.24C565.335 169.733 566.029 171.653 566.029 174C566.029 176.347 565.122 178.267 563.309 179.76C561.602 181.253 559.362 182 556.589 182H553.709ZM518.189 111.44C515.949 111.44 514.135 110.8 512.749 109.52C511.362 108.24 510.669 106.64 510.669 104.72C510.669 102.587 511.362 100.88 512.749 99.6C514.135 98.32 515.949 97.68 518.189 97.68H555.149C557.389 97.68 559.202 98.32 560.589 99.6C561.975 100.88 562.669 102.587 562.669 104.72C562.669 106.64 561.975 108.24 560.589 109.52C559.202 110.8 557.389 111.44 555.149 111.44H518.189ZM622.568 182.64C614.781 182.64 607.794 180.72 601.608 176.88C595.421 172.933 590.514 167.653 586.888 161.04C583.368 154.32 581.608 146.747 581.608 138.32C581.608 129.893 583.528 122.32 587.368 115.6C591.314 108.88 596.594 103.6 603.208 99.76C609.928 95.8133 617.448 93.84 625.768 93.84C634.088 93.84 641.554 95.8133 648.168 99.76C654.781 103.6 660.008 108.88 663.848 115.6C667.794 122.32 669.768 129.893 669.768 138.32H663.528C663.528 146.747 661.714 154.32 658.088 161.04C654.568 167.653 649.714 172.933 643.528 176.88C637.341 180.72 630.354 182.64 622.568 182.64ZM625.768 168.24C631.208 168.24 636.061 166.96 640.328 164.4C644.594 161.733 647.954 158.16 650.408 153.68C652.861 149.093 654.088 143.973 654.088 138.32C654.088 132.56 652.861 127.44 650.408 122.96C647.954 118.373 644.594 114.8 640.328 112.24C636.061 109.573 631.208 108.24 625.768 108.24C620.434 108.24 615.581 109.573 611.208 112.24C606.941 114.8 603.528 118.373 600.968 122.96C598.514 127.44 597.288 132.56 597.288 138.32C597.288 143.973 598.514 149.093 600.968 153.68C603.528 158.16 606.941 161.733 611.208 164.4C615.581 166.96 620.434 168.24 625.768 168.24ZM661.608 182.16C659.261 182.16 657.288 181.413 655.688 179.92C654.194 178.32 653.448 176.347 653.448 174V149.52L656.488 132.56L669.768 138.32V174C669.768 176.347 668.968 178.32 667.368 179.92C665.874 181.413 663.954 182.16 661.608 182.16ZM701.896 127.28C701.896 120.88 703.443 115.173 706.536 110.16C709.736 105.04 714.003 100.987 719.336 98C724.67 95.0133 730.536 93.52 736.936 93.52C743.336 93.52 748.083 94.5867 751.176 96.72C754.376 98.7467 755.603 101.2 754.856 104.08C754.536 105.573 753.896 106.747 752.936 107.6C752.083 108.347 751.07 108.827 749.896 109.04C748.723 109.253 747.443 109.2 746.056 108.88C739.23 107.493 733.096 107.387 727.656 108.56C722.216 109.733 717.896 111.92 714.696 115.12C711.603 118.32 710.056 122.373 710.056 127.28H701.896ZM702.056 182C699.496 182 697.523 181.36 696.136 180.08C694.75 178.693 694.056 176.667 694.056 174V102.48C694.056 99.92 694.75 97.9467 696.136 96.56C697.523 95.1733 699.496 94.48 702.056 94.48C704.723 94.48 706.696 95.1733 707.976 96.56C709.363 97.84 710.056 99.8133 710.056 102.48V174C710.056 176.56 709.363 178.533 707.976 179.92C706.696 181.307 704.723 182 702.056 182ZM781.629 182C779.282 182 777.309 181.2 775.709 179.6C774.215 178 773.469 176.08 773.469 173.84V94.96C773.469 88.0267 774.802 81.68 777.469 75.92C780.135 70.16 784.082 65.5733 789.309 62.16C794.642 58.7467 801.255 57.04 809.149 57.04C811.602 57.04 814.215 57.2533 816.989 57.68C819.762 58 822.642 58.5867 825.629 59.44C829.149 60.4 831.655 61.5733 833.149 62.96C834.642 64.24 835.389 66 835.389 68.24C835.389 70.9067 834.589 72.72 832.989 73.68C831.495 74.5333 829.042 74.48 825.629 73.52C822.642 72.6667 819.815 72.1867 817.149 72.08C814.589 71.8667 812.189 71.76 809.949 71.76C803.975 71.76 799.122 73.68 795.389 77.52C791.655 81.36 789.789 86.64 789.789 93.36V173.84C789.789 176.08 788.989 178 787.389 179.6C785.895 181.2 783.975 182 781.629 182ZM766.589 111.44C764.349 111.44 762.535 110.8 761.149 109.52C759.762 108.24 759.069 106.64 759.069 104.72C759.069 102.587 759.762 100.88 761.149 99.6C762.535 98.32 764.349 97.68 766.589 97.68H802.909C805.149 97.68 806.962 98.32 808.349 99.6C809.735 100.88 810.429 102.587 810.429 104.72C810.429 106.64 809.735 108.24 808.349 109.52C806.962 110.8 805.149 111.44 802.909 111.44H766.589ZM848.189 182C843.495 182 839.335 180.72 835.709 178.16C832.082 175.6 829.255 172.133 827.229 167.76C825.202 163.28 824.189 158.16 824.189 152.4V65.04C824.189 62.6933 824.935 60.7733 826.429 59.28C827.922 57.7867 829.842 57.04 832.189 57.04C834.535 57.04 836.455 57.7867 837.949 59.28C839.442 60.7733 840.189 62.6933 840.189 65.04V152.4C840.189 156.347 840.935 159.6 842.429 162.16C843.922 164.72 845.842 166 848.189 166H852.189C854.322 166 856.029 166.747 857.309 168.24C858.695 169.733 859.389 171.653 859.389 174C859.389 176.347 858.375 178.267 856.349 179.76C854.322 181.253 851.709 182 848.509 182H848.189ZM891.143 220.4C890.076 220.4 888.796 220.08 887.303 219.44C882.609 217.307 881.329 213.947 883.463 209.36L932.263 99.12C934.396 94.64 937.756 93.36 942.343 95.28C947.143 97.3067 948.476 100.667 946.343 105.36L897.383 215.44C896.103 218.747 894.023 220.4 891.143 220.4ZM910.023 178.48C907.996 179.333 906.076 179.44 904.263 178.8C902.556 178.053 901.169 176.667 900.103 174.64L863.463 105.04C862.396 103.013 862.236 101.093 862.983 99.28C863.836 97.36 865.276 95.9733 867.303 95.12C869.329 94.2667 871.249 94.2133 873.063 94.96C874.876 95.6 876.263 96.9333 877.223 98.96L912.263 168.56C913.329 170.587 913.703 172.56 913.383 174.48C913.169 176.293 912.049 177.627 910.023 178.48Z" fill="white"/>
</svg>
